<?xml version="1.0" encoding="utf-8"?>
<!-- Generator: Adobe Illustrator 25.3.0, SVG Export Plug-In . SVG Version: 6.00 Build 0)  -->
<svg version="1.1" id="Layer_1" xmlns="http://www.w3.org/2000/svg" xmlns:xlink="http://www.w3.org/1999/xlink" x="0px" y="0px"
	 viewBox="0 0 52.7 52.8" style="enable-background:new 0 0 52.7 52.8;" xml:space="preserve">
<style type="text/css">
	.st0{fill:#FFFFFF;}
</style>
<g id="Layer_2_1_">
	<g id="Layer_1-2">
		<path id="hosting" class="st0" d="M7,5.6v3.3c0,0.5-0.5,0.7-0.9,0.7c-0.5,0-0.7-0.2-0.7-0.7V5.6c0-0.5,0.5-0.7,0.7-0.7
			C6.3,4.9,7,5.1,7,5.6z M11.2,9.6c0.5,0,0.7-0.5,0.7-0.7l0,0V5.6c0-0.5-0.5-0.7-0.9-0.7c-0.5,0-0.7,0.2-0.7,0.7v3.3
			C10.3,9.1,10.7,9.6,11.2,9.6z M16.1,9.6c0.5,0,0.7-0.5,0.7-0.7V5.6c0-0.5-0.5-0.7-0.7-0.7s-0.9,0.2-0.9,0.7v3.3
			C15.2,9.1,15.6,9.6,16.1,9.6z M21,9.6c0.5,0,0.7-0.5,0.7-0.7V5.6c0-0.5-0.5-0.7-0.7-0.7s-0.7,0.2-0.7,0.7v3.3
			C20.3,9.3,20.6,9.6,21,9.6z M45.6,7.9c1.4-0.2,0.7-2.3-0.5-1.4c-0.2,0.2-0.2,0.9,0,1.2C45.1,7.9,45.4,7.9,45.6,7.9z M40.2,7.9
			c0.5,0,0.7-0.5,0.7-0.7s-0.5-0.7-0.7-0.7c-0.5,0-0.7,0.5-0.7,0.7C39.5,7.7,39.7,7.9,40.2,7.9L40.2,7.9z M34.8,7.9
			c0.5,0,0.7-0.5,0.7-0.7s0-0.5-0.2-0.5c-0.2-0.2-0.7-0.2-1.2,0s-0.2,0.7,0,1.2C34.6,7.9,34.6,7.9,34.8,7.9L34.8,7.9z M6,17.5
			c-0.5,0-0.7,0.5-0.7,0.7l0,0v3.3c0,0.5,0.5,0.7,0.7,0.7s0.9-0.2,0.9-0.7v-3C7,18,6.5,17.5,6,17.5z M11.2,17.5
			c-0.5,0-0.7,0.5-0.7,0.7l0,0v3.3c0,0.5,0.5,0.7,0.9,0.7c0.5,0,0.7-0.2,0.7-0.7v-3C11.9,18,11.4,17.5,11.2,17.5z M16.1,17.5
			c-0.5,0-0.7,0.5-0.7,0.7l0,0v3.3c0,0.5,0.5,0.7,0.7,0.7s0.7-0.5,0.7-0.7v-3C16.8,18,16.6,17.5,16.1,17.5z M21,17.5
			c-0.5,0-0.7,0.5-0.7,0.7v3.3c0,0.5,0.5,0.7,0.7,0.7s0.7-0.5,0.7-0.7v-3C21.7,18,21.5,17.5,21,17.5z M45.1,19.4
			c-0.7,0.7,0.5,1.9,1.2,1.2C47,19.8,45.8,18.7,45.1,19.4z M40.2,19.1c-0.5,0-0.7,0.5-0.7,0.7s0.5,0.7,0.7,0.7
			c0.5,0,0.7-0.5,0.7-0.7C41.1,19.6,40.7,19.1,40.2,19.1L40.2,19.1z M34.4,19.4c-0.7,0.7,0.5,1.9,1.2,1.2S35.1,18.7,34.4,19.4z
			 M48.9,26.4c3.5,1.9,4.9,6.3,3,9.8c-1.2,2.3-3.7,3.7-6.3,3.7H27.3v4.9h9.8c1.2,0,0.7,1.9,0.7,3.3h14c0.5,0,0.7,0.5,0.7,0.7
			c0,0.5-0.5,0.7-0.7,0.7h-14c0,1.4,0.5,3.3-0.7,3.3H15.6c-1.2,0-0.7-1.9-0.7-3.3h-14c-0.5,0-0.7-0.5-0.7-0.7c0-0.5,0.5-0.7,0.7-0.7
			h14c0-1.4-0.5-3.3,0.7-3.3h10.1v-4.9H7.2c-4,0-7.3-3.3-7-7.3c0-2.6,1.4-5.1,3.7-6.3c-3.5-1.9-4.9-6.3-3-9.8c0.7-1.2,1.6-2.3,3-3
			c-3.5-1.9-4.9-6.3-3-9.8C2.1,1.4,4.6,0,7.2,0h38.4c4,0,7.3,3.3,7,7.3c0,2.6-1.4,5.1-3.7,6.3c3.5,1.9,4.9,6.3,3,9.8
			C51.2,24.8,50,25.7,48.9,26.4z M7.2,12.8h38.4c3-0.2,5.4-2.8,5.1-6.1c-0.2-2.8-2.3-5.1-5.1-5.1H7.2c-3,0.2-5.4,2.8-5.4,5.8
			C2.1,10.3,4.4,12.6,7.2,12.8z M16.6,46.3v4.9h19.7v-4.9H16.6z M45.6,27.1H7.2c-3,0-5.6,2.6-5.6,5.6s2.6,5.6,5.6,5.6h38.4
			c3,0,5.6-2.6,5.6-5.6S48.6,27.1,45.6,27.1z M51.2,20.1c0-3-2.6-5.6-5.6-5.6H7.2c-3,0-5.4,2.8-5.4,5.8c0.2,2.8,2.3,5.1,5.1,5.1
			h38.5C48.6,25.5,51.2,23.1,51.2,20.1L51.2,20.1z M6,30.4c-0.5,0-0.7,0.5-0.7,0.7l0,0v3.3c0,0.5,0.5,0.7,0.7,0.7s0.9-0.2,0.9-0.7
			v-3.3C7,30.8,6.5,30.4,6,30.4z M11.2,30.4c-0.5,0-0.7,0.5-0.7,0.7l0,0v3.3c0,0.5,0.5,0.7,0.9,0.7c0.5,0,0.7-0.2,0.7-0.7v-3.3
			C11.9,30.8,11.4,30.4,11.2,30.4z M16.1,30.4c-0.5,0-0.7,0.5-0.7,0.7l0,0v3.3c0,0.5,0.5,0.7,0.7,0.7s0.7-0.5,0.7-0.7v-3.3
			C16.8,30.8,16.6,30.4,16.1,30.4z M21,30.4c-0.5,0-0.7,0.5-0.7,0.7v3.3c0,0.5,0.5,0.7,0.7,0.7c0.5,0,0.7-0.5,0.7-0.7v-3.3
			C21.7,30.8,21.5,30.4,21,30.4z M45.1,32.2c-0.7,0.7,0.5,1.9,1.2,1.2C47,32.7,45.8,31.5,45.1,32.2L45.1,32.2z M40.2,32
			c-0.5,0-0.7,0.5-0.7,0.7s0.5,0.7,0.7,0.7c0.5,0,0.7-0.5,0.7-0.7C41.1,32.2,40.7,32,40.2,32L40.2,32z M34.4,32.2
			c-0.7,0.7,0.5,1.9,1.2,1.2S35.1,31.5,34.4,32.2L34.4,32.2z"/>
	</g>
</g>
</svg>
