<?xml version="1.0" encoding="utf-8"?>
<!-- Generator: Adobe Illustrator 25.3.0, SVG Export Plug-In . SVG Version: 6.00 Build 0)  -->
<svg version="1.1" id="Layer_1" xmlns="http://www.w3.org/2000/svg" xmlns:xlink="http://www.w3.org/1999/xlink" x="0px" y="0px"
	 viewBox="0 0 59.3 43.3" style="enable-background:new 0 0 59.3 43.3;" xml:space="preserve">
<style type="text/css">
	.st0{fill-rule:evenodd;clip-rule:evenodd;fill:#FFFFFF;}
</style>
<path class="st0" d="M53.7,43.3H5.1C2.3,43.3,0,41,0,38.2v-28c0-2.8,2.3-5.1,5.1-5.1h1.3l0,0c0-1.4,1.2-2.5,2.6-2.5h2.6
	c1.4,0,2.6,1.1,2.6,2.5h2.6c0,0,1.4-0.1,2.6-1.3L22,1.3c0,0,1-1.3,2.6-1.3h10.3c1.7,0,2.6,1.3,2.6,1.3l2.6,2.5
	c1.2,1.1,2.6,1.3,2.6,1.3h11.5c2.8,0,5.1,2.3,5.1,5.1v28C58.9,41,56.6,43.3,53.7,43.3z M56.3,10.1c0-1.4-1.2-2.5-2.6-2.5H42
	c-0.4,0-2.4-0.4-4.1-2l-2.7-2.7L35,2.6c0,0-0.3-0.1-0.5-0.1H24.3c-0.3,0-0.5,0.3-0.5,0.3l-0.1,0.1L21,5.6c-1.7,1.7-3.7,1.9-4.1,2
	h-5.4c0,0,0,0-0.1,0H8.9l0,0H5.1c-1.4,0-2.6,1.1-2.6,2.5v28c0,1.4,1.2,2.5,2.6,2.5h48.7c1.4,0,2.6-1.1,2.6-2.5L56.3,10.1L56.3,10.1z
	 M29.4,38.2c-7.8,0-14.1-6.2-14.1-14s6.3-14,14.1-14s14.1,6.2,14.1,14S37.2,38.2,29.4,38.2z M29.4,12.7c-6.4,0-11.5,5.1-11.5,11.5
	S23,35.6,29.4,35.6s11.5-5.1,11.5-11.5S35.8,12.7,29.4,12.7z M29.4,30.5c-3.6,0-6.4-2.8-6.4-6.4s2.8-6.4,6.4-6.4s6.4,2.8,6.4,6.4
	S33,30.5,29.4,30.5z M29.4,20.3c-2.2,0-3.8,1.7-3.8,3.8s1.7,3.8,3.8,3.8s3.8-1.7,3.8-3.8S31.6,20.3,29.4,20.3z M11.5,15.2H6.3
	c-0.8,0-1.3-0.5-1.3-1.3v-2.5c0-0.8,0.5-1.3,1.3-1.3h5.1c0.8,0,1.3,0.5,1.3,1.3v2.5C12.7,14.7,12.2,15.2,11.5,15.2z"/>
</svg>
