<?xml version="1.0" encoding="utf-8"?>
<!-- Generator: Adobe Illustrator 25.3.0, SVG Export Plug-In . SVG Version: 6.00 Build 0)  -->
<svg version="1.1" id="Layer_1" xmlns="http://www.w3.org/2000/svg" xmlns:xlink="http://www.w3.org/1999/xlink" x="0px" y="0px"
	 viewBox="0 0 57 56.8" style="enable-background:new 0 0 57 56.8;" xml:space="preserve">
<style type="text/css">
	.st0{fill:none;stroke:#FFFFFF;stroke-width:2;stroke-miterlimit:10;}
	.st1{fill:none;stroke:#FFFFFF;stroke-width:2;stroke-linecap:round;stroke-linejoin:round;}
	.st2{fill:none;stroke:#FFFFFF;stroke-width:2;stroke-linecap:round;stroke-miterlimit:10;}
</style>
<g>
	<circle class="st0" cx="36.7" cy="35.9" r="13.7"/>
	<line class="st1" x1="46.1" y1="45.9" x2="56" y2="55.8"/>
	<g>
		<path class="st1" d="M25.6,49.8c-13.5,0-24.4-11-24.4-24.4S12.2,1,25.6,1S50,12,50,25.4"/>
		<line class="st2" x1="25.6" y1="1" x2="25.6" y2="21.7"/>
		<g>
			<path class="st1" d="M19.9,37.8c-4.6,0.2-9.2,1.1-13.6,2.6"/>
			<path class="st0" d="M6.5,10.4c4.5,1.7,11.4,2.9,19.2,2.9s14.8-1.1,19.2-2.9"/>
		</g>
		<path class="st1" d="M39.7,18.6C37.9,8.4,32.3,1,25.6,1c-8.1,0-14.7,11-14.7,24.4s6.6,24.4,14.7,24.4"/>
		<line class="st1" x1="22.4" y1="25.4" x2="1" y2="25.4"/>
	</g>
</g>
</svg>
