<?xml version="1.0" encoding="utf-8"?>
<!-- Generator: Adobe Illustrator 25.3.0, SVG Export Plug-In . SVG Version: 6.00 Build 0)  -->
<svg version="1.1" id="Layer_1" xmlns="http://www.w3.org/2000/svg" xmlns:xlink="http://www.w3.org/1999/xlink" x="0px" y="0px"
	 viewBox="0 0 52.1 52.1" style="enable-background:new 0 0 52.1 52.1;" xml:space="preserve">
<style type="text/css">
	.st0{fill:none;}
	.st1{fill:none;stroke:#FFFFFF;stroke-width:2;stroke-miterlimit:10;}
</style>
<g>
	<rect class="st0" width="52.1" height="52.1"/>
	<path class="st1" d="M45.8,20.8c0-1.1-0.9-2.1-2.1-2.1s-2.1,0.9-2.1,2.1c0,0.5,0,15.1,0,15.6c0,1.1,0.9,2.1,2.1,2.1
		s2.1-0.9,2.1-2.1C45.8,35.9,45.8,21.3,45.8,20.8z"/>
	<path class="st1" d="M29.1,48.9c1.1,0,2.1-0.9,2.1-2.1c0-1.1-0.9-2.1-2.1-2.1c-0.5,0-4.7,0-5.2,0c-1.1,0-2.1,0.9-2.1,2.1
		c0,1.1,0.9,2.1,2.1,2.1C24.4,48.9,28.6,48.9,29.1,48.9z"/>
	<path class="st1" d="M8.3,19.8C8.3,10,16.2,2.1,26,2.1S43.7,10,43.7,19.8"/>
	<path class="st1" d="M45.8,20.8c2.9,0,5.2,3.5,5.2,7.8s-2.3,7.8-5.2,7.8"/>
	<path class="st1" d="M6.2,20.8c0-1.1,0.9-2.1,2.1-2.1s2.1,0.9,2.1,2.1c0,0.5,0,15.1,0,15.6c0,1.1-0.9,2.1-2.1,2.1s-2.1-0.9-2.1-2.1
		C6.2,35.9,6.2,21.3,6.2,20.8z"/>
	<path class="st1" d="M6.2,20.8c-2.9,0-5.2,3.5-5.2,7.8s2.3,7.8,5.2,7.8"/>
	<path class="st1" d="M43.7,38.5c0,5.2-3.1,8.3-8.3,8.3h-4.2"/>
</g>
</svg>
