<?xml version="1.0" encoding="utf-8"?>
<!-- Generator: Adobe Illustrator 25.3.0, SVG Export Plug-In . SVG Version: 6.00 Build 0)  -->
<svg version="1.1" id="Layer_1" xmlns="http://www.w3.org/2000/svg" xmlns:xlink="http://www.w3.org/1999/xlink" x="0px" y="0px"
	 viewBox="0 0 60 48.8" style="enable-background:new 0 0 60 48.8;" xml:space="preserve">
<style type="text/css">
	.st0{fill:none;}
	.st1{fill:#FFFFFF;}
</style>
<rect y="-5.6" class="st0" width="60" height="60"/>
<g>
	<circle class="st1" cx="4.8" cy="4.5" r="1.1"/>
	<circle class="st1" cx="12.4" cy="4.5" r="1.1"/>
	<circle class="st1" cx="8.7" cy="4.5" r="1.1"/>
	<path class="st1" d="M16.9,20.9l3.4-3.4c0.5-0.5,0.5-1.1,0-1.6s-1.1-0.5-1.6,0l-4.2,4.2c-0.5,0.5-0.5,1.1,0,1.6l4.2,4.2
		c0.5,0.5,1.1,0.5,1.6,0l0,0c0.5-0.5,0.5-1.1,0-1.6L16.9,20.9z"/>
	<path class="st1" d="M33,25.9c0.5,0.5,1.1,0.5,1.6,0l4.2-4.2c0.5-0.5,0.5-1.1,0-1.6l-4.2-4.2c-0.5-0.5-1.1-0.5-1.6,0
		s-0.5,1.1,0,1.6l3.4,3.4L33,24.3C32.5,24.8,32.5,25.5,33,25.9z"/>
	<path class="st1" d="M29.3,16.2c-0.6-0.3-1.2-0.1-1.6,0.5l0,0L23.5,24c-0.3,0.6-0.2,1.2,0.3,1.6c0.6,0.3,1.2,0.2,1.6-0.3
		c0,0,0,0,0-0.1l4.2-7.3C30.1,17.4,29.8,16.7,29.3,16.2C29.3,16.4,29.3,16.4,29.3,16.2z"/>
	<path class="st1" d="M57.3,31.9c-0.1,0-0.2-0.1-0.3-0.2c-0.5-1.2-1.2-2.3-2-3.3c-0.1-0.1-0.1-0.2,0-0.3c0.7-1.2,0.3-2.8-0.9-3.5
		L53.2,24V3.4c0-1.9-1.5-3.4-3.4-3.4H3.4C1.5,0,0,1.5,0,3.4v28.5c0,1.5,1.1,2.6,2.6,2.6H18l-1.1,4.2h-1.5c-2.3,0-4.2,1.6-4.7,3.7
		H7.9c-0.7,0-1.1,0.5-1.1,1.1s0.5,1.1,1.1,1.1h28.7c0,0.2,0,0.6,0.1,0.8c0.2,0.7,0.6,1.2,1.2,1.6l2.4,1.4c1.2,0.7,2.8,0.3,3.5-0.9
		l0,0c0.1-0.1,0.2-0.2,0.3-0.1c1.2,0.2,2.5,0.2,3.7,0c0.1,0,0.2,0,0.3,0.2c0.5,0.8,1.4,1.2,2.3,1.2c0.5,0,0.9-0.1,1.4-0.3l2.4-1.4
		c0.6-0.3,1-0.9,1.2-1.6s0.1-1.4-0.2-1.9c-0.1-0.1-0.1-0.2,0-0.3c0.8-1,1.5-2,1.9-3.3c0-0.1,0.1-0.2,0.3-0.2c1.5,0,2.6-1.1,2.6-2.6
		v-2.7C59.8,33,58.6,31.9,57.3,31.9z M2.3,3.4c0-0.7,0.5-1.1,1.1-1.1h46.5c0.6,0,1.1,0.4,1.1,1.1v3.4H2.3V3.4z M2.6,32.3
		c-0.2,0-0.3-0.1-0.3-0.3V9H51v13.8c-1.1-0.3-2.3,0.1-2.8,1.1l0,0C48.1,24,48,24.1,47.9,24c-1.2-0.2-2.5-0.2-3.7,0
		c-0.1,0-0.2,0-0.3-0.1l0,0c-0.7-1.2-2.3-1.7-3.5-0.9l0,0L38,24.4c-0.6,0.3-1,0.9-1.2,1.6s-0.1,1.4,0.2,2c0.1,0.1,0.1,0.2,0,0.3
		c-0.8,1-1.5,2-1.9,3.3c0,0.1-0.1,0.2-0.3,0.2c-0.6,0-1.1,0.2-1.6,0.6L2.6,32.3z M32.6,38.8H19.1l1.1-4.2H32v2.6
		C32.1,37.7,32.3,38.3,32.6,38.8z M15.4,41h20c0.2,0.6,0.6,1,0.9,1.5H13.1C13.5,41.6,14.4,41,15.4,41L15.4,41z M57.6,37.2
		c0,0.2-0.1,0.3-0.3,0.3c-1.1,0-2,0.7-2.5,1.7c-0.3,0.9-0.9,1.8-1.5,2.6c-0.7,0.8-0.8,2-0.2,2.9c0,0.1,0,0.2,0,0.2
		c0,0.1-0.1,0.1-0.1,0.2l-2.5,1.4c-0.1,0.1-0.3,0-0.5-0.1l0,0c-0.6-0.9-1.6-1.5-2.7-1.2c-1,0.1-2,0.1-3,0c-1-0.2-2.1,0.3-2.7,1.2
		c0,0.1-0.1,0.2-0.3,0.1l-2.4-1.4c-0.1,0-0.1-0.1-0.1-0.2c0-0.1,0-0.2,0-0.2c0.6-0.9,0.5-2.1-0.2-2.9c-0.7-0.8-1.1-1.7-1.5-2.6
		c-0.3-1-1.4-1.6-2.4-1.6c-0.2,0-0.3-0.1-0.3-0.3v-2.7c0-0.2,0.1-0.3,0.3-0.3l0,0c1.1,0,2-0.7,2.4-1.7c0.3-0.9,0.9-1.8,1.5-2.6
		c0.7-0.8,0.8-2,0.2-2.9c0-0.1,0-0.2,0-0.2c0-0.1,0.1-0.1,0.1-0.2l2.4-1.4c0,0,0.1,0,0.2,0s0.2,0.1,0.2,0.1l0,0
		c0.6,0.9,1.6,1.5,2.7,1.2c1-0.1,2-0.1,3,0c1.1,0.1,2.1-0.3,2.7-1.4l0,0c0.1-0.1,0.3-0.2,0.5-0.1l0,0l2.4,1.4c0.1,0,0.1,0.1,0.1,0.2
		c0,0.1,0,0.2,0,0.2c-0.6,0.9-0.5,2.1,0.2,2.9c0.7,0.8,1.1,1.7,1.5,2.6c0.3,1,1.4,1.7,2.4,1.7c0.2,0,0.3,0.1,0.3,0.3l0,0L57.6,37.2
		L57.6,37.2L57.6,37.2z"/>
	<path class="st1" d="M45.9,30.6c-2.8,0-5.1,2.3-5.1,5.1s2.3,5.1,5.1,5.1s5.1-2.3,5.1-5.1S48.7,30.6,45.9,30.6L45.9,30.6z
		 M45.9,38.6c-1.6,0-2.8-1.2-2.8-2.8s1.2-2.8,2.8-2.8s2.8,1.2,2.8,2.8C48.9,37.4,47.5,38.6,45.9,38.6L45.9,38.6z"/>
</g>
</svg>
