<?xml version="1.0" encoding="utf-8"?>
<!-- Generator: Adobe Illustrator 25.3.0, SVG Export Plug-In . SVG Version: 6.00 Build 0)  -->
<svg version="1.1" id="Layer_1" xmlns="http://www.w3.org/2000/svg" xmlns:xlink="http://www.w3.org/1999/xlink" x="0px" y="0px"
	 viewBox="0 0 57.2 40.8" style="enable-background:new 0 0 57.2 40.8;" xml:space="preserve">
<style type="text/css">
	.st0{fill:#FFFFFF;}
</style>
<g id="film_rool_cinema_movie_film_roll_strip_image">
	<path class="st0" d="M36.8,0C25.6,0,16.4,9.2,16.4,20.4c0,6.3,3.1,12.5,8.2,16.4H2c-1.2,0-2,0.8-2,2c0,1.2,0.8,2,2,2h34.8
		c11.2,0,20.4-9.2,20.4-20.4S48,0,36.8,0z M36.8,36.8c-9,0-16.4-7.4-16.4-16.4S27.8,4,36.8,4s16.3,7.4,16.3,16.4
		S45.8,36.8,36.8,36.8z"/>
	<circle class="st0" cx="36.8" cy="12.2" r="4.1"/>
	<circle class="st0" cx="36.8" cy="28.6" r="4.1"/>
	<circle class="st0" cx="45" cy="20.4" r="4.1"/>
	<circle class="st0" cx="28.6" cy="20.4" r="4.1"/>
</g>
</svg>
