<svg id="Layer_1" data-name="Layer 1" xmlns="http://www.w3.org/2000/svg" viewBox="0 0 379.23 454.73"><defs><style>.cls-1{fill:#dc647c;}.cls-2{fill:#5960a8;}.cls-3{fill:#73b8e6;}</style></defs><path class="cls-1" d="M60.39,337.09V47.4c0-22,26.61-33,42.17-17.48L209.88,137.23H123.56c-21.4,0-32.12,25.89-17,41L290.13,361.8h-205A24.71,24.71,0,0,1,60.39,337.09Z" transform="translate(-60.39 -22.64)"/><path class="cls-2" d="M374.78,361.8H290.13L106.57,178.24c-15.13-15.12-4.41-41,17-41h86.32L392.27,319.62C407.82,335.18,396.8,361.8,374.78,361.8Z" transform="translate(-60.39 -22.64)"/><path class="cls-3" d="M439.62,161.27v292c0,21.41-25.89,32.12-41,17L290.13,361.8h84.65c22,0,33-26.62,17.49-42.18L209.88,137.23h205.7A24,24,0,0,1,439.62,161.27Z" transform="translate(-60.39 -22.64)"/></svg>